# xmcd
#
# Track frame offsets: 
#        150
#        15719
#        31741
#        46704
#        63033
#        79045
#        94450
#        110004
#        127482
#        144601
#        161661
#        176845
#        194258
#        213275
#        229330
#        246236
#        260730
#        277121
#
# Disc length: 3923 seconds
#
# Revision: 0
# Processed by: cddbd v1.5.2PL0 Copyright (c) Steve Scherf et al.
# Submitted via: ExactAudioCopy v0.99pb5
#
DISCID=0d0f5112
DTITLE=Britney Spears - THe Singles Collection
DYEAR=2009
DGENRE=Pop
TTITLE0=3
TTITLE1=Baby One More Time
TTITLE2=(You Drive Me) Crazy (The Stop! Remix)
TTITLE3=Born To Make You Happy
TTITLE4=Oops!... I Did It Again
TTITLE5=Stronger
TTITLE6=I'm A Slave 4 U
TTITLE7=I'm Not A Girl, Not Yet A Woman
TTITLE8=Boys (feat. Pharrell Williams, The Co-Ed Remix)
TTITLE9=Me Against The Music (feat. Madonna)
TTITLE10=Toxic
TTITLE11=Everytime
TTITLE12=Gimme More
TTITLE13=Piece Of Me
TTITLE14=Womanizer
TTITLE15=Circus
TTITLE16=If U Seek Amy
TTITLE17=Radar
EXTD=
EXTT0=
EXTT1=
EXTT2=
EXTT3=
EXTT4=
EXTT5=
EXTT6=
EXTT7=
EXTT8=
EXTT9=
EXTT10=
EXTT11=
EXTT12=
EXTT13=
EXTT14=
EXTT15=
EXTT16=
EXTT17=
PLAYORDER=
